<?xml version="1.0"?>
<svg version="1.1" xmlns="http://www.w3.org/2000/svg" width="250px" height="100px" style="border: dashed 2px #aaa"><path fill="#ffffff" d="M67.29,42.602c0,0.162-0.054,0.324-0.108,0.54l-12.69,34.83c-0.27,0.756-0.864,1.188-1.674,1.188l-3.618,0c-1.026,0-1.512-0.432-1.836-1.35l-13.284-34.506c-0.108-0.216-0.162-0.432-0.162-0.648c0-0.54,0.432-0.864,1.08-0.864l4.752,0c1.134,0,1.674,0.378,1.944,1.134l9.558,26.676l0.162,0l9.018-26.514c0.324-0.972,0.81-1.296,2.052-1.296l3.78,0c0.702,0,1.026,0.324,1.026,0.81z M98.151,77.864c0,0.864-0.378,1.296-1.296,1.296l-20.034,0c-1.08,0-1.458-0.27-1.458-1.458l0-34.56c0-0.864,0.378-1.35,1.242-1.35l20.358,0c0.864,0,1.134,0.324,1.134,0.918l0,0.324l-0.378,3.24c-0.108,0.972-0.702,1.134-1.836,1.134l-13.554,0l0,9.774l12.474,0c1.026,0,1.35,0.432,1.35,1.188l0,3.078c0,0.918-0.378,1.296-1.296,1.296l-12.528,0l0,10.8l14.472,0c0.918,0,1.35,0.378,1.35,1.242l0,3.078z M139.056,77.702c0,1.188-0.486,1.458-1.296,1.458l-3.618,0c-0.81,0-1.512-0.378-2.052-1.134l-17.604-24.084l-0.108,0l0,23.814c0,1.026-0.486,1.404-1.404,1.404l-3.888,0c-1.026,0-1.458-0.27-1.458-1.35l0-34.56c0-1.134,0.486-1.458,1.458-1.458l3.51,0c0.864,0,1.296,0.27,1.836,1.026l17.766,24.408l0.108,0l0-24.03c0-1.026,0.486-1.404,1.404-1.404l4.05,0c1.134,0,1.296,0.594,1.296,1.458l0,34.452z M181.257,62.582c0,11.124-5.238,17.226-15.768,17.226c-11.394,0-15.552-6.264-15.552-17.334l0-19.386c0-0.918,0.54-1.296,1.404-1.296l4.266,0c0.918,0,1.296,0.378,1.296,1.296l0,18.792c0,7.938,2.052,12.042,8.856,12.042c6.534,0,8.586-4.32,8.586-12.042l0-18.792c0-0.918,0.486-1.296,1.35-1.296l4.266,0c0.918,0,1.296,0.378,1.296,1.296l0,19.494z M215.25,68.252c0,7.506-6.102,11.556-13.122,11.556c-3.24,0-7.074-0.594-10.314-1.728c-0.702-0.27-0.918-0.594-0.918-1.026c0-0.216,0-0.432,0.108-0.702l1.134-3.51c0.162-0.54,0.432-0.864,0.972-0.864c0.216,0,0.486,0.054,0.81,0.162c2.538,0.918,5.346,1.62,8.046,1.62c2.916,0,6.21-1.404,6.21-4.806c0-2.484-1.836-3.834-3.942-4.86l-7.02-3.51c-3.834-1.89-6.372-5.076-6.372-9.288c0-6.588,6.48-10.206,12.474-10.206c3.564,0,6.534,0.54,9.666,1.89c0.702,0.324,1.08,0.648,1.08,1.08c0,0.216-0.054,0.432-0.162,0.702l-1.296,3.294c-0.216,0.594-0.54,0.81-0.918,0.81c-0.27,0-0.54-0.108-0.864-0.216c-2.214-0.918-4.968-1.674-7.128-1.674c-2.538,0-5.454,1.08-5.454,4.104c0,2.214,2.052,3.51,3.834,4.374l5.994,2.916c4.266,2.052,7.182,4.914,7.182,9.882z"/><path fill="#ffffff" d=""/></svg>
